<svg width="148" height="128" viewBox="0 0 148 128" fill="none" xmlns="http://www.w3.org/2000/svg">
<path d="M111.649 68.6555V59.3444H100.225C99.6805 56.5511 98.0484 53.7577 96.4163 50.9644L104.577 43.981L96.9604 37.4632L88.8 44.4466C86.0798 43.0499 82.8157 41.6533 79.0075 41.1877V31.411H68.127V41.1877C64.8628 41.6533 61.5986 43.0499 58.3345 44.4466L50.1741 37.4632L42.5577 43.981L50.7181 50.9644C49.086 53.2922 47.4539 56.0855 46.9099 59.3444H35.4854V68.6555H46.9099C47.4539 71.4489 49.086 74.2422 50.7181 77.0355L42.5577 84.0189L50.1741 90.5367L58.3345 83.5533C61.0546 84.95 64.3188 86.3467 68.127 86.8122V96.5889H79.0075V86.8122C82.2717 86.3467 85.5358 84.95 88.8 83.5533L96.9604 90.5367L104.577 84.0189L96.4163 77.0355C98.0484 74.7078 99.6805 71.9144 100.225 68.6555H111.649ZM73.5672 77.9667C64.3188 77.9667 57.2464 71.9144 57.2464 64C57.2464 56.0855 64.3188 50.0333 73.5672 50.0333C82.8157 50.0333 89.888 56.0855 89.888 64C89.888 71.9144 82.8157 77.9667 73.5672 77.9667Z" fill="#4ABD4A"/>
<path d="M73.4676 0V9.14286C108.604 9.14286 137.353 33.8286 137.353 64C137.353 94.1714 108.604 118.857 73.4676 118.857V128C114.46 128 148 99.2 148 64C148 28.8 114.46 0 73.4676 0ZM31.9424 105.6L25.554 112.914C31.9424 117.486 39.3957 121.6 47.9137 123.886L51.6403 115.2C44.187 112.914 37.7986 109.714 31.9424 105.6ZM10.6475 73.1429L0 74.9714C1.59712 82.2857 4.79137 89.6 9.05036 96L18.1007 91.4286C14.3741 85.9429 11.7122 79.5429 10.6475 73.1429ZM18.1007 36.5714L9.05036 32C4.79137 38.4 1.59712 45.7143 0.532374 53.0286L11.1799 54.4C11.7122 48 14.3741 42.0571 18.1007 36.5714ZM51.1079 12.8L47.3813 4.11429C39.3957 6.85714 31.9424 10.5143 25.554 15.0857L32.4748 21.9429C37.7986 18.2857 44.1871 15.0857 51.1079 12.8Z" fill="#4ABD4A"/>
</svg>
