<svg width="160" height="120" viewBox="0 0 160 120" fill="none" xmlns="http://www.w3.org/2000/svg">
<path d="M150 0H10C7.34784 0 4.8043 1.05357 2.92893 2.92893C1.05357 4.8043 0 7.34784 0 10V110C0 112.652 1.05357 115.196 2.92893 117.071C4.8043 118.946 7.34784 120 10 120H150C152.652 120 155.196 118.946 157.071 117.071C158.946 115.196 160 112.652 160 110V10C160 7.34784 158.946 4.8043 157.071 2.92893C155.196 1.05357 152.652 0 150 0ZM142.3 110H18.3L53.3 73.8L46.1 66.85L10 104.2V17.6L72.15 79.45C74.0236 81.3125 76.5581 82.3579 79.2 82.3579C81.8419 82.3579 84.3764 81.3125 86.25 79.45L150 16.05V103.55L113.2 66.75L106.15 73.8L142.3 110ZM16.55 10H141.9L79.2 72.35L16.55 10Z" fill="#95C995"/>
</svg>
