<svg width="209" height="197" viewBox="0 0 209 197" fill="none" xmlns="http://www.w3.org/2000/svg">
<path d="M4.16699 171.637H61.3098M147.024 171.637H204.167M104.696 125.856V63.3882L175.596 35.2556M105.167 63.0541L33.3384 35.2556M104.167 4.52271L176.067 34.8692V95.5622L104.167 125.898L32.267 95.5518V34.8692L104.167 4.52271ZM132.738 171.637C132.738 177.176 129.728 182.489 124.37 186.406C119.012 190.322 111.745 192.523 104.167 192.523C96.5894 192.523 89.3221 190.322 83.9639 186.406C78.6058 182.489 75.5956 177.176 75.5956 171.637C75.5956 166.098 78.6058 160.786 83.9639 156.869C89.3221 152.952 96.5894 150.752 104.167 150.752C111.745 150.752 119.012 152.952 124.37 156.869C129.728 160.786 132.738 166.098 132.738 171.637Z" stroke="#4ABD4A" stroke-width="8.33333" stroke-linecap="round"/>
</svg>
