<svg width="189" height="189" viewBox="0 0 189 189" fill="none" xmlns="http://www.w3.org/2000/svg">
<g filter="url(#filter0_d_8_68)">
<path fill-rule="evenodd" clip-rule="evenodd" d="M30 10H140.437V27.8125H133.312V17.125H37.125V99.0625H113.316V106.188H30V10ZM136.875 56.3125C139.709 56.3125 142.428 55.1865 144.432 53.1822C146.436 51.1779 147.562 48.4595 147.562 45.625C147.562 42.7905 146.436 40.0721 144.432 38.0678C142.428 36.0635 139.709 34.9375 136.875 34.9375C134.04 34.9375 131.322 36.0635 129.318 38.0678C127.313 40.0721 126.187 42.7905 126.187 45.625C126.187 48.4595 127.313 51.1779 129.318 53.1822C131.322 55.1865 134.04 56.3125 136.875 56.3125ZM144.11 63.4731C148.738 63.4731 152.4 65.5536 154.798 68.767C157.039 71.7773 157.986 75.5001 158.2 78.9379C158.412 82.4645 157.931 85.9984 156.786 89.3404C155.717 92.4398 153.911 95.6461 151.125 97.8441V132.906C151.128 134.249 150.625 135.543 149.716 136.532C148.808 137.521 147.561 138.131 146.223 138.242C144.885 138.353 143.554 137.956 142.495 137.13C141.436 136.305 140.727 135.111 140.509 133.786L135.913 106.188H134.851L129.657 133.89C129.411 135.197 128.685 136.365 127.623 137.166C126.56 137.967 125.237 138.343 123.912 138.22C122.588 138.097 121.356 137.484 120.459 136.501C119.562 135.519 119.064 134.237 119.062 132.906V82.0801C118.35 83.1653 117.647 84.2566 116.953 85.354L116.676 85.7922L116.604 85.9062L116.587 85.9382C116.106 86.7092 115.438 87.345 114.644 87.7857C113.849 88.2264 112.956 88.4574 112.048 88.4569H94.2354C92.8182 88.4569 91.459 87.8939 90.4568 86.8918C89.4547 85.8896 88.8917 84.5304 88.8917 83.1132C88.8917 81.6959 89.4547 80.3367 90.4568 79.3346C91.459 78.3324 92.8182 77.7694 94.2354 77.7694H109.116C109.982 76.4299 111.122 74.6914 112.319 72.9458C113.566 71.1254 114.941 69.1981 116.166 67.6876C116.761 66.9501 117.427 66.1806 118.097 65.5501C118.425 65.2401 118.881 64.8376 119.437 64.4813C120.416 63.8338 121.562 63.4848 122.735 63.4767L144.11 63.4731Z" fill="#4ABD4A"/>
</g>
<defs>
<filter id="filter0_d_8_68" x="0" y="0" width="188.249" height="188.26" filterUnits="userSpaceOnUse" color-interpolation-filters="sRGB">
<feFlood flood-opacity="0" result="BackgroundImageFix"/>
<feColorMatrix in="SourceAlpha" type="matrix" values="0 0 0 0 0 0 0 0 0 0 0 0 0 0 0 0 0 0 127 0" result="hardAlpha"/>
<feOffset dy="20"/>
<feGaussianBlur stdDeviation="15"/>
<feComposite in2="hardAlpha" operator="out"/>
<feColorMatrix type="matrix" values="0 0 0 0 0 0 0 0 0 0 0 0 0 0 0 0 0 0 0.25 0"/>
<feBlend mode="normal" in2="BackgroundImageFix" result="effect1_dropShadow_8_68"/>
<feBlend mode="normal" in="SourceGraphic" in2="effect1_dropShadow_8_68" result="shape"/>
</filter>
</defs>
</svg>
