<svg width="160" height="120" viewBox="0 0 160 120" fill="none" xmlns="http://www.w3.org/2000/svg">
<path d="M63.2444 112.421C68.6311 115.122 74.2489 117.591 80 120C85.7635 117.623 91.354 115.094 96.7556 112.421C105.76 107.928 114.234 103.056 122.116 97.841C140.284 85.7675 160 68.2651 160 48.618C160 42.2334 157.931 35.9113 153.91 30.0127C149.89 24.1141 143.997 18.7545 136.569 14.2399C129.14 9.72528 120.321 6.14411 110.615 3.70082C100.909 1.25754 90.5058 0 80 0C69.4943 0 59.0914 1.25754 49.3853 3.70082C39.6793 6.14411 30.8601 9.72528 23.4315 14.2399C16.0028 18.7545 10.11 24.1141 6.08964 30.0127C2.06926 35.9113 -1.56548e-07 42.2334 0 48.618C0 68.2651 19.7156 85.7621 37.8844 97.841C45.7655 103.058 54.2397 107.926 63.2444 112.421ZM80 66.1745C72.3382 66.1745 64.9902 64.3248 59.5725 61.0323C54.1548 57.7398 51.1111 53.2743 51.1111 48.618C51.1111 43.9617 54.1548 39.4962 59.5725 36.2037C64.9902 32.9112 72.3382 31.0615 80 31.0615C87.6618 31.0615 95.0098 32.9112 100.428 36.2037C105.845 39.4962 108.889 43.9617 108.889 48.618C108.889 53.2743 105.845 57.7398 100.428 61.0323C95.0098 64.3248 87.6618 66.1745 80 66.1745Z" fill="#95C995"/>
</svg>
