<svg width="88" height="93" viewBox="0 0 88 93" fill="none" xmlns="http://www.w3.org/2000/svg">
<path fill-rule="evenodd" clip-rule="evenodd" d="M33.952 5.16033e-05C42.8224 0.196592 49.8537 7.54658 49.6572 16.4168C49.4672 24.9914 42.5926 31.8478 34.1221 32.1176L33.2403 32.122C24.3701 31.9254 17.3387 24.5754 17.5353 15.705C17.7253 7.13062 24.5999 0.274043 33.0704 0.00419152L33.952 5.16033e-05ZM-6.73821e-05 81.8877L44.0516 82.8637C42.6522 79.97 41.8218 76.8344 41.6058 73.6273L9.38106 72.9133L9.54374 65.5712L9.58714 64.6807C10.2125 56.4381 16.9072 50.1244 24.8031 50.2994L40.8642 50.6552L41.7043 50.6984C44.5438 50.9277 47.1633 51.9896 49.3362 53.6529C51.649 51.4372 54.3618 49.6812 57.3302 48.4782C53.1198 44.265 47.4075 41.6181 41.0675 41.4777L25.0065 41.1218L24.0129 41.1205C11.1562 41.3715 0.661611 52.0244 0.365962 65.3678L-6.73821e-05 81.8877ZM26.7128 15.9084C26.7971 12.1069 29.9471 9.09339 33.7486 9.17762C37.5501 9.26185 40.5636 12.4119 40.4794 16.2134C40.3952 20.0149 37.2451 23.0284 33.4436 22.9442C29.6421 22.8599 26.6286 19.7099 26.7128 15.9084ZM67.25 51.2399C55.8454 50.9872 46.3953 60.0276 46.1426 71.4322C45.8899 82.8367 54.9304 92.2869 66.3349 92.5395C77.7396 92.7922 87.1896 83.7518 87.4423 72.3472C87.695 60.9427 78.6547 51.4926 67.25 51.2399ZM80.4513 65.0395L61.9615 82.7275L53.2477 73.6188L57.3935 69.6527L62.1412 74.6156L76.4852 60.8936L80.4513 65.0395Z" fill="#4ABD4A"/>
</svg>
