<svg width="82" height="91" viewBox="0 0 82 91" fill="none" xmlns="http://www.w3.org/2000/svg">
<path d="M36.7917 3.125C18.1992 3.125 3.125 18.0435 3.125 36.4508C3.125 42.7338 4.87988 48.6129 7.93513 53.625" stroke="#4ABD4A" stroke-width="6.25" stroke-linecap="round"/>
<path d="M51.5207 41V49.4167M64.1457 41V49.4167M51.5207 7.33337V15.75M64.1457 7.33337V15.75M45.2082 22.0625H36.7915M45.2082 34.6875H36.7915M78.8748 22.0625H70.4582M78.8748 34.6875H70.4582M62.0415 15.75H53.6248C49.6564 15.75 47.6743 15.75 46.4412 16.9831C45.2082 18.2161 45.2082 20.1982 45.2082 24.1667V32.5834C45.2082 36.5518 45.2082 38.534 46.4412 39.767C47.6743 41 49.6564 41 53.6248 41H62.0415C66.01 41 67.9921 41 69.2251 39.767C70.4582 38.534 70.4582 36.5518 70.4582 32.5834V24.1667C70.4582 20.1982 70.4582 18.2161 69.2251 16.9831C67.9921 15.75 66.01 15.75 62.0415 15.75Z" stroke="#4ABD4A" stroke-width="6.25" stroke-linecap="round" stroke-linejoin="round"/>
<path d="M49.4164 74.6666L48.8693 77.3894C48.2802 80.3647 47.9814 81.8502 47.3123 83.0286C46.2812 84.8447 44.6118 86.2127 42.6284 86.8666C41.3448 87.2916 39.8214 87.2916 36.7914 87.2916C33.7614 87.2916 32.238 87.2916 30.9545 86.8708C28.9704 86.2158 27.3009 84.8463 26.2706 83.0286C25.6015 81.8502 25.3027 80.3647 24.7135 77.3894L24.1664 74.6666M17.3616 66.6624C16.9744 65.5009 16.7808 64.9159 16.8018 64.4446C16.8256 63.9572 16.9901 63.4872 17.2754 63.0914C17.5607 62.6956 17.9546 62.3909 18.4094 62.2142C18.8471 62.0416 19.4615 62.0416 20.6819 62.0416H52.9009C54.1255 62.0416 54.7358 62.0416 55.1734 62.21C55.6289 62.387 56.0232 62.6923 56.3085 63.0889C56.5939 63.4856 56.758 63.9565 56.781 64.4446C56.802 64.9159 56.6085 65.4967 56.2213 66.6624C55.5059 68.8128 55.1482 69.8902 54.5969 70.7613C53.4438 72.5819 51.6363 73.8908 49.5469 74.4183C48.5453 74.6666 47.4175 74.6666 45.1576 74.6666H28.4253C26.1654 74.6666 25.0333 74.6666 24.036 74.4141C21.9472 73.8876 20.1398 72.5803 18.986 70.7613C18.4347 69.8902 18.077 68.8128 17.3616 66.6624Z" stroke="#4ABD4A" stroke-width="6.25"/>
</svg>
