<svg width="131" height="130" viewBox="0 0 131 130" fill="none" xmlns="http://www.w3.org/2000/svg">
<path d="M8.54492 51.3153C8.54492 54.9103 9.97302 58.358 12.5151 60.9001C15.0571 63.4421 18.5048 64.8702 22.0998 64.8702C25.6948 64.8702 29.1426 63.4421 31.6846 60.9001C34.2266 58.358 35.6548 54.9103 35.6548 51.3153C35.6548 47.7203 34.2266 44.2726 31.6846 41.7305C29.1426 39.1885 25.6948 37.7604 22.0998 37.7604C18.5048 37.7604 15.0571 39.1885 12.5151 41.7305C9.97302 44.2726 8.54492 47.7203 8.54492 51.3153ZM95.2831 51.3153C95.2831 53.0953 95.6337 54.858 96.3149 56.5025C96.9961 58.1471 97.9945 59.6414 99.2532 60.9001C100.512 62.1588 102.006 63.1572 103.651 63.8384C105.295 64.5196 107.058 64.8702 108.838 64.8702C110.618 64.8702 112.381 64.5196 114.025 63.8384C115.67 63.1572 117.164 62.1588 118.423 60.9001C119.681 59.6414 120.68 58.1471 121.361 56.5025C122.042 54.858 122.393 53.0953 122.393 51.3153C122.393 47.7203 120.965 44.2726 118.423 41.7305C115.881 39.1885 112.433 37.7604 108.838 37.7604C105.243 37.7604 101.795 39.1885 99.2532 41.7305C96.7112 44.2726 95.2831 47.7203 95.2831 51.3153Z" stroke="#4ABD4A" stroke-width="6.25" stroke-linecap="round" stroke-linejoin="round"/>
<path d="M89.8522 126.427V89.1095C83.0439 88.4798 76.5665 85.8803 71.2118 81.6288C65.857 77.3772 61.8568 71.6578 59.7 65.1695L55.0339 51.1768C54.6616 50.0544 54.5381 48.8643 54.672 47.6893C54.806 46.5144 55.1941 45.3826 55.8095 44.3728C56.4249 43.3629 57.2528 42.4992 58.2357 41.8415C59.2186 41.1839 60.3328 40.7481 61.5011 40.5645C63.4678 40.3181 65.4585 40.7731 67.1228 41.8496C68.7872 42.9261 70.0186 44.555 70.6005 46.4498L75.1336 60.0435C76.3927 63.8189 78.8083 67.1021 82.038 69.4276C85.2677 71.7532 89.1475 73.003 93.1273 72.9999H116.957C118.381 72.9992 119.791 73.279 121.107 73.8233C122.423 74.3676 123.619 75.1659 124.627 76.1724C125.634 77.1789 126.434 78.3741 126.979 79.6896C127.525 81.0051 127.806 82.4152 127.807 83.8394V126.455" stroke="#4ABD4A" stroke-width="6.25" stroke-linecap="round" stroke-linejoin="round"/>
<path d="M56.8958 56.7295L55.7875 60.0213C54.5304 63.8062 52.1113 67.0981 48.8746 69.4284C45.6379 71.7586 41.7486 73.0084 37.7604 72.9999H13.959C11.0889 73.0013 8.33665 74.141 6.30568 76.1688C4.27471 78.1967 3.13087 80.9472 3.125 83.8172V126.427M41.0854 126.427V89.1095C45.8356 88.669 50.4467 87.2673 54.6384 84.9895C58.8301 82.7117 62.5148 79.6054 65.4687 75.8594M62.6979 3.125V14.2083M84.388 14.6794L76.5521 22.5264M41.0078 14.6794L48.8437 22.5264" stroke="#4ABD4A" stroke-width="6.25" stroke-linecap="round" stroke-linejoin="round"/>
</svg>
