<svg width="160" height="120" viewBox="0 0 160 120" fill="none" xmlns="http://www.w3.org/2000/svg">
<path d="M150.667 120C132.148 120 113.852 116.973 95.7778 110.92C77.7037 104.867 61.2593 96.2822 46.4445 85.1667C31.6296 74.0511 20.1867 61.7178 12.1156 48.1667C4.04444 34.6156 0.00592593 20.8933 0 7C0 5 0.888888 3.33333 2.66667 2C4.44444 0.666666 6.66667 0 9.33334 0H45.3333C47.4074 0 49.2593 0.528888 50.8889 1.58667C52.5185 2.64444 53.4815 3.89333 53.7778 5.33333L59.5556 28.6667C59.8519 30.4444 59.7778 31.9444 59.3333 33.1667C58.8889 34.3889 58.0741 35.4444 56.8889 36.3333L35.3333 52.6667C38.2963 56.7778 41.8133 60.7489 45.8844 64.58C49.9556 68.4111 54.4385 72.1067 59.3333 75.6667C63.9259 79.1111 68.7407 82.3067 73.7778 85.2533C78.8148 88.2 84.1482 90.8933 89.7778 93.3333L110.667 77.6667C112 76.6667 113.742 75.9178 115.893 75.42C118.044 74.9222 120.154 74.7822 122.222 75L152.889 79.6667C154.963 80.1111 156.667 80.9178 158 82.0867C159.333 83.2556 160 84.56 160 86V113C160 115 159.111 116.667 157.333 118C155.556 119.333 153.333 120 150.667 120Z" fill="#95C995"/>
</svg>
