<svg width="200" height="188" viewBox="0 0 200 188" fill="none" xmlns="http://www.w3.org/2000/svg">
<path d="M92.8571 173.538C67.1429 173.538 42.1429 160.523 27.1429 137.385H64.2857V122.923H7.14286V180.769H21.4286V154.015C39.2857 175.708 65 188 92.8571 188V173.538ZM200 144.615V130.154H185C184.286 125.815 182.143 121.477 180 117.138L190.714 106.292L180.714 96.1692L170 107.015C166.429 104.846 162.143 102.677 157.143 101.954V86.7692H142.857V101.954C138.571 102.677 134.286 104.846 130 107.015L119.286 96.1692L109.286 106.292L120 117.138C117.857 120.754 115.714 125.092 115 130.154H100V144.615H115C115.714 148.954 117.857 153.292 120 157.631L109.286 168.477L119.286 178.6L130 167.754C133.571 169.923 137.857 172.092 142.857 172.815V188H157.143V172.815C161.429 172.092 165.714 169.923 170 167.754L180.714 178.6L190.714 168.477L180 157.631C182.143 154.015 184.286 149.677 185 144.615H200ZM150 159.077C137.857 159.077 128.571 149.677 128.571 137.385C128.571 125.092 137.857 115.692 150 115.692C162.143 115.692 171.429 125.092 171.429 137.385C171.429 149.677 162.143 159.077 150 159.077ZM121.429 50.6154H158.571C135 13.7385 86.4286 3.61539 50 27.4769C27.8571 41.9385 14.2857 67.2462 14.2857 94H0C0 41.9385 41.4286 0 92.8571 0C120.714 0 146.429 12.2923 164.286 33.9846V7.23077H178.571V65.0769H121.429V50.6154Z" fill="#4ABD4A"/>
</svg>
