<svg width="170" height="170" viewBox="0 0 170 170" fill="none" xmlns="http://www.w3.org/2000/svg">
<g clip-path="url(#clip0_252_47)">
<path d="M151.406 22.3125C149.58 21.1308 147.491 20.4159 145.323 20.2306C143.156 20.0454 140.976 20.3954 138.975 21.25L73.4187 47.0687C71.8683 47.7056 70.2074 48.0306 68.5312 48.025H26.5625C23.0401 48.025 19.662 49.4242 17.1712 51.915C14.6805 54.4057 13.2812 57.7838 13.2812 61.3062V62.3687H0V94.2437H13.2812V95.625C13.3645 99.0919 14.8004 102.389 17.2822 104.811C19.7639 107.233 23.0946 108.588 26.5625 108.587L42.5 142.375C43.5792 144.65 45.2782 146.575 47.402 147.928C49.5257 149.281 51.9881 150.008 54.5063 150.025H61.2C64.704 149.997 68.0549 148.585 70.5227 146.098C72.9904 143.61 74.3751 140.248 74.375 136.744V109.862L138.975 135.681C140.566 136.306 142.259 136.63 143.969 136.637C146.621 136.589 149.203 135.777 151.406 134.3C153.154 133.12 154.595 131.541 155.611 129.693C156.628 127.846 157.189 125.783 157.25 123.675V33.2562C157.24 31.0942 156.703 28.9673 155.684 27.0601C154.666 25.1529 153.197 23.5232 151.406 22.3125ZM61.0938 61.3062V95.625H26.5625V61.3062H61.0938ZM61.0938 136.744H54.4L41.3312 108.587H61.0938V136.744ZM78.3063 97.2187C77.0445 96.5745 75.7291 96.0413 74.375 95.625V60.5625C75.7159 60.2837 77.0309 59.8928 78.3063 59.3937L143.969 33.2562V123.356L78.3063 97.2187ZM157.569 65.025V91.5875C161.091 91.5875 164.469 90.1882 166.96 87.6975C169.451 85.2068 170.85 81.8286 170.85 78.3062C170.85 74.7838 169.451 71.4057 166.96 68.915C164.469 66.4242 161.091 65.025 157.569 65.025Z" fill="#4ABD4A"/>
</g>
<defs>
<clipPath id="clip0_252_47">
<rect width="170" height="170" fill="white"/>
</clipPath>
</defs>
</svg>
