<svg width="215" height="215" viewBox="0 0 215 215" fill="none" xmlns="http://www.w3.org/2000/svg">
<path d="M26.8748 197.083V191.932C26.8748 188.349 27.8453 185.064 29.7863 182.078C31.7273 179.092 34.4148 176.852 37.8488 175.359C41.7307 173.717 45.7262 172.448 49.835 171.552C53.9439 170.656 58.235 170.208 62.7082 170.208C67.1814 170.208 71.4754 170.656 75.5902 171.552C79.7051 172.448 83.6975 173.717 87.5675 175.359C91.0016 176.852 93.6891 179.092 95.63 182.078C97.571 185.064 98.5415 188.349 98.5415 191.932V197.083H26.8748ZM116.458 197.083V191.932C116.458 188.349 117.429 185.064 119.37 182.078C121.311 179.092 123.998 176.852 127.432 175.359C131.314 173.717 135.309 172.448 139.418 171.552C143.527 170.656 147.818 170.208 152.292 170.208C156.765 170.208 161.059 170.656 165.174 171.552C169.288 172.448 173.281 173.717 177.151 175.359C180.585 176.852 183.272 179.092 185.213 182.078C187.154 185.064 188.125 188.349 188.125 191.932V197.083H116.458ZM62.7082 161.25C57.7811 161.25 53.5647 159.497 50.059 155.991C46.5533 152.486 44.7975 148.266 44.7915 143.333C44.7855 138.4 46.5414 134.184 50.059 130.684C53.5766 127.184 57.793 125.429 62.7082 125.417C67.6233 125.405 71.8427 127.161 75.3663 130.684C78.8899 134.208 80.6427 138.424 80.6248 143.333C80.6069 148.243 78.8541 152.462 75.3663 155.991C71.8785 159.521 67.6591 161.274 62.7082 161.25ZM152.292 161.25C147.364 161.25 143.148 159.497 139.642 155.991C136.137 152.486 134.381 148.266 134.375 143.333C134.369 138.4 136.125 134.184 139.642 130.684C143.16 127.184 147.376 125.429 152.292 125.417C157.207 125.405 161.426 127.161 164.95 130.684C168.473 134.208 170.226 138.424 170.208 143.333C170.19 148.243 168.437 152.462 164.95 155.991C161.462 159.521 157.242 161.274 152.292 161.25ZM107.5 143.333L80.6248 116.458L90.0311 107.052L100.781 117.578V98.5417H114.219V117.578L124.969 107.052L134.375 116.458L107.5 143.333ZM17.9165 89.5833V84.4323C17.9165 80.849 18.887 77.5642 20.828 74.5781C22.7689 71.592 25.4564 69.3524 28.8905 67.8594C32.7724 66.217 36.7678 64.9479 40.8767 64.0521C44.9856 63.1563 49.2766 62.7083 53.7498 62.7083C56.7359 62.7083 59.6862 62.9323 62.6007 63.3802C65.5151 63.8281 68.3131 64.4254 70.9946 65.1719C68.4564 67.7101 66.4408 70.6215 64.9478 73.9063C63.4547 77.191 62.7082 80.6997 62.7082 84.4323V89.5833H17.9165ZM71.6665 89.5833V84.4323C71.6665 80.849 72.637 77.5642 74.578 74.5781C76.5189 71.592 79.2064 69.3524 82.6405 67.8594C86.5224 66.217 90.5178 64.9479 94.6267 64.0521C98.7356 63.1563 103.027 62.7083 107.5 62.7083C111.973 62.7083 116.267 63.1563 120.382 64.0521C124.497 64.9479 128.489 66.217 132.359 67.8594C135.793 69.3524 138.481 71.592 140.422 74.5781C142.363 77.5642 143.333 80.849 143.333 84.4323V89.5833H71.6665ZM152.292 89.5833V84.4323C152.292 80.6997 151.545 77.191 150.052 73.9063C148.559 70.6215 146.543 67.7101 144.005 65.1719C146.693 64.4254 149.494 63.8281 152.408 63.3802C155.322 62.9323 158.27 62.7083 161.25 62.7083C165.729 62.7083 170.023 63.1563 174.132 64.0521C178.241 64.9479 182.233 66.217 186.109 67.8594C189.543 69.3524 192.231 71.592 194.172 74.5781C196.113 77.5642 197.083 80.849 197.083 84.4323V89.5833H152.292ZM53.7498 53.75C48.8228 53.75 44.6064 51.9972 41.1007 48.4915C37.595 44.9858 35.8391 40.7664 35.8332 35.8333C35.8272 30.9003 37.583 26.6839 41.1007 23.1842C44.6183 19.6845 48.8347 17.9286 53.7498 17.9167C58.665 17.9047 62.8843 19.6606 66.408 23.1842C69.9316 26.7078 71.6844 30.9242 71.6665 35.8333C71.6486 40.7425 69.8957 44.9619 66.408 48.4915C62.9202 52.0211 58.7008 53.7739 53.7498 53.75ZM107.5 53.75C102.573 53.75 98.3564 51.9972 94.8507 48.4915C91.345 44.9858 89.5891 40.7664 89.5832 35.8333C89.5772 30.9003 91.333 26.6839 94.8507 23.1842C98.3683 19.6845 102.585 17.9286 107.5 17.9167C112.415 17.9047 116.634 19.6606 120.158 23.1842C123.682 26.7078 125.434 30.9242 125.417 35.8333C125.399 40.7425 123.646 44.9619 120.158 48.4915C116.67 52.0211 112.451 53.7739 107.5 53.75ZM161.25 53.75C156.323 53.75 152.106 51.9972 148.601 48.4915C145.095 44.9858 143.339 40.7664 143.333 35.8333C143.327 30.9003 145.083 26.6839 148.601 23.1842C152.118 19.6845 156.335 17.9286 161.25 17.9167C166.165 17.9047 170.384 19.6606 173.908 23.1842C177.432 26.7078 179.184 30.9242 179.167 35.8333C179.149 40.7425 177.396 44.9619 173.908 48.4915C170.42 52.0211 166.201 53.7739 161.25 53.75Z" fill="#4ABD4A"/>
</svg>
