<svg width="174" height="174" viewBox="0 0 174 174" fill="none" xmlns="http://www.w3.org/2000/svg">
<path d="M43.5 32.625V38.0625H38.0625C32.0649 38.0625 27.1875 42.9399 27.1875 48.9375C27.1875 54.9351 32.0649 59.8125 38.0625 59.8125H59.8125V70.6875H38.0625C26.0728 70.6875 16.3125 60.9326 16.3125 48.9375C16.3237 44.0378 17.9889 39.2853 21.0384 35.4502C24.088 31.6151 28.3431 28.9221 33.1144 27.8074C35.3981 15.1162 46.4743 5.4375 59.8125 5.4375C73.1507 5.4375 84.2269 15.1162 86.5106 27.8074C91.2819 28.9221 95.537 31.6151 98.5866 35.4502C101.636 39.2853 103.301 44.0378 103.312 48.9375V48.9756H92.4375V48.9375C92.4375 42.9399 87.5601 38.0625 81.5625 38.0625H76.125V32.625C76.125 23.6314 68.8061 16.3125 59.8125 16.3125C50.8189 16.3125 43.5 23.6314 43.5 32.625ZM81.5625 136.938V119.625H92.4375V136.938C98.7559 139.189 103.312 145.17 103.312 152.25C103.312 161.244 95.9936 168.562 87 168.562C78.0064 168.562 70.6875 161.244 70.6875 152.25C70.6875 145.17 75.2496 139.189 81.5625 136.938ZM81.5625 152.25C81.5625 153.692 82.1354 155.075 83.1551 156.095C84.1748 157.115 85.5579 157.688 87 157.688C88.4421 157.688 89.8252 157.115 90.8449 156.095C91.8646 155.075 92.4375 153.692 92.4375 152.25C92.4375 150.808 91.8646 149.425 90.8449 148.405C89.8252 147.385 88.4421 146.812 87 146.812C85.5579 146.812 84.1748 147.385 83.1551 148.405C82.1354 149.425 81.5625 150.808 81.5625 152.25ZM157.688 119.625C157.688 128.619 150.369 135.938 141.375 135.938C138.958 135.935 136.573 135.395 134.39 134.359C132.207 133.322 130.281 131.813 128.752 129.942C127.223 128.071 126.128 125.884 125.546 123.539C124.964 121.193 124.911 118.748 125.389 116.379L111.338 107.945L116.776 98.5221L131.06 107.092C133.951 104.665 137.601 103.328 141.375 103.312C150.369 103.312 157.688 110.631 157.688 119.625ZM146.812 119.625C146.812 118.183 146.24 116.8 145.22 115.78C144.2 114.76 142.817 114.188 141.375 114.188C139.933 114.188 138.55 114.76 137.53 115.78C136.51 116.8 135.938 118.183 135.938 119.625C135.938 121.067 136.51 122.45 137.53 123.47C138.55 124.49 139.933 125.062 141.375 125.062C142.817 125.062 144.2 124.49 145.22 123.47C146.24 122.45 146.812 121.067 146.812 119.625ZM157.688 54.375C157.688 63.3686 150.369 70.6875 141.375 70.6875C137.601 70.6719 133.951 69.3348 131.06 66.9084L117.037 75.3203L111.599 65.8971L125.389 57.6266C124.91 55.2574 124.963 52.8114 125.544 50.4652C126.125 48.119 127.22 45.931 128.749 44.0593C130.279 42.1876 132.205 40.6788 134.388 39.6417C136.572 38.6047 138.958 38.0653 141.375 38.0625C145.7 38.0625 149.849 39.7804 152.908 42.8384C155.967 45.8964 157.686 50.0442 157.688 54.3696M146.812 54.3696C146.812 52.9274 146.24 51.5444 145.22 50.5247C144.2 49.5049 142.817 48.9321 141.375 48.9321C139.933 48.9321 138.55 49.5049 137.53 50.5247C136.51 51.5444 135.938 52.9274 135.938 54.3696C135.938 55.8117 136.51 57.1947 137.53 58.2145C138.55 59.2342 139.933 59.8071 141.375 59.8071C142.817 59.8071 144.2 59.2342 145.22 58.2145C146.24 57.1947 146.812 55.8117 146.812 54.3696ZM48.6112 116.379C48.8287 117.43 48.9375 118.512 48.9375 119.625C48.9375 128.619 41.6186 135.938 32.625 135.938C23.6314 135.938 16.3125 128.619 16.3125 119.625C16.3125 110.631 23.6314 103.312 32.625 103.312C36.3993 103.328 40.0489 104.665 42.9399 107.092L56.898 98.7178L62.3355 108.141L48.6112 116.379ZM38.0625 119.625C38.0625 118.183 37.4896 116.8 36.4699 115.78C35.4502 114.76 34.0671 114.188 32.625 114.188C31.1829 114.188 29.7998 114.76 28.7801 115.78C27.7604 116.8 27.1875 118.183 27.1875 119.625C27.1875 121.067 27.7604 122.45 28.7801 123.47C29.7998 124.49 31.1829 125.062 32.625 125.062C34.0671 125.062 35.4502 124.49 36.4699 123.47C37.4896 122.45 38.0625 121.067 38.0625 119.625ZM108.75 87C108.75 75.0049 98.9951 65.25 87 65.25C75.0049 65.25 65.25 75.0049 65.25 87C65.25 98.9951 75.0049 108.75 87 108.75C98.9951 108.75 108.75 98.9951 108.75 87ZM97.875 87C97.875 92.9976 92.9976 97.875 87 97.875C81.0024 97.875 76.125 92.9976 76.125 87C76.125 81.0024 81.0079 76.125 87 76.125C92.9921 76.125 97.875 81.0024 97.875 87Z" fill="#4ABD4A"/>
</svg>
