<svg width="177" height="177" viewBox="0 0 177 177" fill="none" xmlns="http://www.w3.org/2000/svg">
<path fill-rule="evenodd" clip-rule="evenodd" d="M147.5 51.6249L81.125 14.7498L14.75 51.6249V125.375L81.125 162.25L88.4999 158.149V91.3686L132.75 65.8215V90.3066L147.5 105.772V51.6249ZM29.4998 115.672V66.2346L73.7498 91.7818V141.12L29.4998 115.672ZM39.5521 55.0024L81.125 31.0949L122.336 54.8033L80.771 78.8016L39.5521 55.0024ZM164.077 124.754L157.522 128.538C158.233 131.111 158.593 133.768 158.591 136.437C158.593 139.106 158.233 141.764 157.522 144.336L164.077 148.121C163.369 150.242 162.468 152.293 161.387 154.25L160.699 155.44C159.533 157.375 158.192 159.199 156.693 160.89L150.139 157.106C146.44 160.873 141.739 163.651 136.466 165.008V172.575C134.038 173.067 131.568 173.314 129.091 173.312C126.565 173.312 124.099 173.058 121.716 172.575V165.008C116.443 163.651 111.74 160.872 108.041 157.105L101.488 160.889C99.9837 159.192 98.6383 157.361 97.4692 155.417L96.8085 154.273C95.7208 152.309 94.8158 150.249 94.1051 148.12L100.66 144.335C99.9482 141.763 99.5885 139.106 99.5907 136.437C99.5885 133.768 99.9482 131.112 100.66 128.539L94.1051 124.755C94.816 122.625 95.7212 120.565 96.8092 118.6L97.4688 117.458C98.638 115.515 99.9835 113.683 101.488 111.986L108.041 115.769C111.74 112.002 116.443 109.224 121.716 107.867V100.3C124.143 99.8077 126.614 99.5605 129.091 99.5621C131.617 99.5621 134.083 99.8162 136.466 100.3V107.867C141.739 109.224 146.44 112.002 150.139 115.768L156.693 111.985C158.192 113.675 159.533 115.5 160.7 117.435L161.386 118.624C162.468 120.581 163.369 122.632 164.077 124.754ZM140.154 136.437C140.154 142.547 135.201 147.5 129.091 147.5C122.982 147.5 118.029 142.547 118.029 136.437C118.029 130.328 122.982 125.375 129.091 125.375C135.201 125.375 140.154 130.328 140.154 136.437Z" fill="#4ABD4A"/>
</svg>
