<svg width="159" height="159" viewBox="0 0 159 159" fill="none" xmlns="http://www.w3.org/2000/svg">
<g clip-path="url(#clip0_252_43)">
<path d="M139.125 99.375H159V159H79.5V99.375H99.375V79.5H139.125V99.375ZM109.312 99.375H129.188V89.4375H109.312V99.375ZM149.062 129.188H139.125V139.125H129.188V129.188H109.312V139.125H99.375V129.188H89.4375V149.062H149.062V129.188ZM89.4375 109.312V119.25H149.062V109.312H89.4375ZM69.5625 69.5625C69.5625 74.376 68.5015 78.8789 66.3794 83.0713C64.2573 87.2637 61.2295 90.7832 57.2959 93.6299C59.625 94.8203 61.8247 96.1919 63.895 97.7446C65.9653 99.2974 67.8545 101.031 69.5625 102.946V129.188C69.5625 125.099 68.7861 121.243 67.2334 117.62C65.6807 113.997 63.5586 110.839 60.8672 108.148C58.1758 105.457 54.9927 103.309 51.3179 101.704C47.6431 100.1 43.7871 99.3232 39.75 99.375C35.6094 99.375 31.7534 100.151 28.1821 101.704C24.6108 103.257 21.4536 105.379 18.7104 108.07C15.9673 110.762 13.8193 113.945 12.2666 117.62C10.7139 121.294 9.9375 125.15 9.9375 129.188H0C0 125.409 0.517578 121.76 1.55273 118.241C2.58789 114.721 4.06299 111.383 5.97803 108.226C7.89307 105.068 10.248 102.273 13.043 99.8408C15.8379 97.4082 18.8916 95.312 22.2041 93.5522C18.3223 90.7573 15.3203 87.2637 13.1982 83.0713C11.0762 78.8789 9.98926 74.376 9.9375 69.5625C9.9375 65.4736 10.7139 61.6177 12.2666 57.9946C13.8193 54.3716 15.9414 51.2144 18.6328 48.5229C21.3242 45.8315 24.4814 43.6836 28.1045 42.0791C31.7275 40.4746 35.6094 39.6982 39.75 39.75C43.4766 39.75 47.022 40.397 50.3862 41.6909C53.7505 42.9849 56.8301 44.8999 59.625 47.436C61.2812 45.9351 63.1187 44.6152 65.1372 43.4766C63.3774 41.665 62.0317 39.5688 61.1001 37.188C60.1685 34.8071 59.6768 32.3486 59.625 29.8125C59.625 27.0693 60.1426 24.5073 61.1777 22.1265C62.2129 19.7456 63.6362 17.6235 65.4478 15.7603C67.2593 13.897 69.3555 12.4736 71.7363 11.4902C74.1172 10.5068 76.7051 9.98926 79.5 9.9375C82.2432 9.9375 84.8052 10.4551 87.186 11.4902C89.5669 12.5254 91.689 13.9487 93.5522 15.7603C95.4155 17.5718 96.8389 19.668 97.8223 22.0488C98.8057 24.4297 99.3232 27.0176 99.375 29.8125C99.375 32.3486 98.9092 34.8071 97.9775 37.188C97.0459 39.5688 95.6743 41.665 93.8628 43.4766C98.1587 45.8574 101.652 49.0664 104.344 53.1035C107.035 49.0664 110.529 45.8574 114.825 43.4766C113.065 41.665 111.719 39.5688 110.788 37.188C109.856 34.8071 109.364 32.3486 109.312 29.8125C109.312 27.0693 109.83 24.5073 110.865 22.1265C111.9 19.7456 113.324 17.6235 115.135 15.7603C116.947 13.897 119.043 12.4736 121.424 11.4902C123.805 10.5068 126.393 9.98926 129.188 9.9375C131.931 9.9375 134.493 10.4551 136.874 11.4902C139.254 12.5254 141.376 13.9487 143.24 15.7603C145.103 17.5718 146.526 19.668 147.51 22.0488C148.493 24.4297 149.011 27.0176 149.062 29.8125C149.062 32.3486 148.597 34.8071 147.665 37.188C146.733 39.5688 145.362 41.665 143.55 43.4766C145.931 44.7705 148.079 46.3491 149.994 48.2124C151.909 50.0757 153.514 52.1201 154.808 54.3457C156.102 56.5713 157.137 59.0039 157.913 61.6436C158.689 64.2832 159.052 66.9229 159 69.5625H149.062C149.062 66.8193 148.545 64.2573 147.51 61.8765C146.475 59.4956 145.051 57.3735 143.24 55.5103C141.428 53.647 139.332 52.2236 136.951 51.2402C134.57 50.2568 131.982 49.7393 129.188 49.6875C126.444 49.6875 123.882 50.2051 121.501 51.2402C119.121 52.2754 116.999 53.6987 115.135 55.5103C113.272 57.3218 111.849 59.418 110.865 61.7988C109.882 64.1797 109.364 66.7676 109.312 69.5625H99.375C99.375 66.8193 98.8574 64.2573 97.8223 61.8765C96.7871 59.4956 95.3638 57.3735 93.5522 55.5103C91.7407 53.647 89.6445 52.2236 87.2637 51.2402C84.8828 50.2568 82.2949 49.7393 79.5 49.6875C76.9639 49.6875 74.5054 50.1533 72.1245 51.085C69.7437 52.0166 67.6475 53.3882 65.8359 55.1997C67.0781 57.3735 68.0098 59.6768 68.6309 62.1094C69.252 64.542 69.5625 67.0264 69.5625 69.5625ZM129.188 19.875C127.79 19.875 126.496 20.1338 125.306 20.6514C124.115 21.1689 123.08 21.8677 122.2 22.7476C121.32 23.6274 120.596 24.6885 120.026 25.9307C119.457 27.1729 119.198 28.4668 119.25 29.8125C119.25 31.21 119.509 32.5039 120.026 33.6943C120.544 34.8848 121.243 35.9199 122.123 36.7998C123.002 37.6797 124.063 38.4043 125.306 38.9736C126.548 39.543 127.842 39.8018 129.188 39.75C130.585 39.75 131.879 39.4912 133.069 38.9736C134.26 38.4561 135.295 37.7573 136.175 36.8774C137.055 35.9976 137.779 34.9365 138.349 33.6943C138.918 32.4521 139.177 31.1582 139.125 29.8125C139.125 28.415 138.866 27.1211 138.349 25.9307C137.831 24.7402 137.132 23.7051 136.252 22.8252C135.373 21.9453 134.312 21.2207 133.069 20.6514C131.827 20.082 130.533 19.8232 129.188 19.875ZM79.5 19.875C78.1025 19.875 76.8086 20.1338 75.6182 20.6514C74.4277 21.1689 73.3926 21.8677 72.5127 22.7476C71.6328 23.6274 70.9082 24.6885 70.3389 25.9307C69.7695 27.1729 69.5107 28.4668 69.5625 29.8125C69.5625 31.21 69.8213 32.5039 70.3389 33.6943C70.8564 34.8848 71.5552 35.9199 72.4351 36.7998C73.3149 37.6797 74.376 38.4043 75.6182 38.9736C76.8604 39.543 78.1543 39.8018 79.5 39.75C80.8975 39.75 82.1914 39.4912 83.3818 38.9736C84.5723 38.4561 85.6074 37.7573 86.4873 36.8774C87.3672 35.9976 88.0918 34.9365 88.6611 33.6943C89.2305 32.4521 89.4893 31.1582 89.4375 29.8125C89.4375 28.415 89.1787 27.1211 88.6611 25.9307C88.1436 24.7402 87.4448 23.7051 86.5649 22.8252C85.6851 21.9453 84.624 21.2207 83.3818 20.6514C82.1396 20.082 80.8457 19.8232 79.5 19.875ZM39.75 89.4375C42.4932 89.4375 45.0552 88.9199 47.436 87.8848C49.8169 86.8496 51.939 85.4263 53.8022 83.6147C55.6655 81.8032 57.0889 79.707 58.0723 77.3262C59.0557 74.9453 59.5732 72.3574 59.625 69.5625C59.625 66.8193 59.1074 64.2573 58.0723 61.8765C57.0371 59.4956 55.6138 57.3735 53.8022 55.5103C51.9907 53.647 49.8945 52.2236 47.5137 51.2402C45.1328 50.2568 42.5449 49.7393 39.75 49.6875C37.0068 49.6875 34.4448 50.2051 32.064 51.2402C29.6831 52.2754 27.561 53.6987 25.6978 55.5103C23.8345 57.3218 22.4111 59.418 21.4277 61.7988C20.4443 64.1797 19.9268 66.7676 19.875 69.5625C19.875 72.3057 20.3926 74.8677 21.4277 77.2485C22.4629 79.6294 23.8862 81.7515 25.6978 83.6147C27.5093 85.478 29.6055 86.9014 31.9863 87.8848C34.3672 88.8682 36.9551 89.3857 39.75 89.4375Z" fill="#4ABD4A"/>
</g>
<defs>
<clipPath id="clip0_252_43">
<rect width="159" height="159" fill="white"/>
</clipPath>
</defs>
</svg>
