<svg width="70" height="97" viewBox="0 0 70 97" fill="none" xmlns="http://www.w3.org/2000/svg">
<path d="M66.9544 95.4844C66.9544 95.0824 66.7941 94.6969 66.5087 94.4127C66.2234 94.1285 65.8363 93.9688 65.4328 93.9688H10.654C10.2504 93.9688 9.86338 94.1285 9.57802 94.4127C9.29266 94.6969 9.13234 95.0824 9.13234 95.4844C9.13234 95.8864 9.29266 96.2719 9.57802 96.5561C9.86338 96.8403 10.2504 97 10.654 97H65.4328C65.8363 97 66.2234 96.8403 66.5087 96.5561C66.7941 96.2719 66.9544 95.8864 66.9544 95.4844ZM3.87966 28.3543C2.60758 29.197 0.678148 31.7615 2.50715 35.405C4.02574 38.4272 7.19378 42.1253 10.5627 43.1014C11.3724 43.3541 12.227 43.4318 13.0693 43.3294C13.9116 43.2269 14.7222 42.9466 15.4471 42.5072C18.7917 40.5127 22.7418 37.8149 24.4156 36.6569C26.5277 37.7209 29.1936 37.9422 31.9021 37.248L31.9386 37.2359C31.7803 42.2405 30.0791 45.3657 21.7619 53.059C14.3485 59.9127 9.95098 68.9155 9.99359 77.1453C10.024 82.544 11.9991 87.1788 15.7149 90.5404C15.9951 90.7956 16.3609 90.9372 16.7405 90.9375H59.3462C59.7498 90.9375 60.1368 90.7778 60.4222 90.4936C60.7076 90.2094 60.8679 89.8239 60.8679 89.4219C60.8679 89.0199 60.7076 88.6344 60.4222 88.3502C60.1368 88.066 59.7498 87.9063 59.3462 87.9063H17.3461C14.5494 85.163 13.0642 81.4497 13.0399 77.1302C13.0003 69.8491 17.1392 61.4738 23.8344 55.2809C32.7055 47.0784 35.0001 43.1923 35.0001 36.375C35.0001 36.2507 34.9575 36.1416 34.9301 36.0264C36.5948 35.1322 38.0342 33.95 39.0172 32.5193C40.2497 30.7308 42.9035 26.1385 40.9345 22.0736C40.8474 21.8945 40.7257 21.7342 40.5764 21.6019C40.427 21.4696 40.253 21.3679 40.0643 21.3026C39.8755 21.2373 39.6756 21.2097 39.4762 21.2213C39.2767 21.2329 39.0814 21.2836 38.9016 21.3703C38.7217 21.4571 38.5608 21.5783 38.428 21.727C38.2952 21.8758 38.1931 22.0491 38.1275 22.2371C38.062 22.4251 38.0342 22.6242 38.0459 22.8229C38.0576 23.0216 38.1084 23.2161 38.1955 23.3952C39.0811 25.2231 38.4512 27.9936 36.5096 30.8066C35.3896 32.4314 33.3872 33.7439 31.1504 34.3138C28.8771 34.8927 26.7163 34.6381 25.2099 33.6105C24.9537 33.4356 24.6498 33.343 24.3392 33.3452C24.0285 33.3474 23.726 33.4442 23.4722 33.6226C23.4174 33.659 18.0643 37.4147 13.889 39.9095C13.5227 40.1332 13.1118 40.2746 12.685 40.3239C12.2582 40.3731 11.8257 40.3289 11.4178 40.1944C9.06235 39.5093 6.47253 36.5205 5.23392 34.0531C4.23268 32.0585 5.25826 31.1067 5.72388 30.7672C16.214 21.7432 21.4789 12.3675 21.6949 11.9704C21.7959 11.7872 21.8578 11.5852 21.8767 11.3771C21.8955 11.169 21.8709 10.9592 21.8045 10.761C21.1486 8.73692 20.6 6.67989 20.1611 4.59843C23.3444 6.50811 28.8192 9.17561 34.5193 9.17561C42.4439 9.17561 60.8679 12.122 60.8679 39.4154C60.8679 39.5639 60.8405 54.4019 54.8726 70.7191C54.802 70.9067 54.7694 71.1065 54.7767 71.3068C54.784 71.5071 54.8312 71.7039 54.9154 71.8859C54.9997 72.068 55.1193 72.2315 55.2675 72.3672C55.4156 72.5028 55.5892 72.6079 55.7784 72.6762C55.9676 72.7446 56.1685 72.7749 56.3695 72.7654C56.5704 72.7559 56.7676 72.7068 56.9494 72.6209C57.1312 72.535 57.2941 72.414 57.4286 72.265C57.5632 72.116 57.6668 71.9419 57.7333 71.7527C63.8838 54.9354 63.9142 40.0277 63.9111 39.4063C63.9111 8.53905 41.4123 6.14133 34.5193 6.14133C26.8837 6.14133 19.2664 0.372864 19.1934 0.312239C18.9659 0.142721 18.696 0.0386607 18.4132 0.0114007C18.1304 -0.0158593 17.8455 0.0347266 17.5896 0.157645C17.335 0.282601 17.1205 0.475995 16.9705 0.71597C16.8205 0.955946 16.7408 1.23294 16.7405 1.51564C16.7405 4.4893 18.1556 9.29989 18.7065 11.055C17.4344 13.1708 12.4191 21.0005 3.87966 28.3543Z" fill="#4ABD4A"/>
<path d="M53.2141 4.66812C48.3418 1.39741 42.8944 0 35.0001 0C34.5966 0 34.2096 0.159681 33.9242 0.443916C33.6388 0.728151 33.4785 1.11366 33.4785 1.51562C33.4785 1.91759 33.6388 2.3031 33.9242 2.58733C34.2096 2.87157 34.5966 3.03125 35.0001 3.03125C42.2431 3.03125 47.1823 4.27103 51.516 7.18103C58.5581 11.9158 66.9544 21.3491 66.9544 39.4062C66.9544 43.8046 66.9544 49.8277 63.9568 61.7738C63.8696 62.1601 63.9375 62.565 64.1461 62.902C64.3547 63.239 64.6874 63.4813 65.073 63.5771C65.4586 63.673 65.8666 63.6147 66.2097 63.4148C66.5528 63.2149 66.8037 62.8892 66.9088 62.5074C69.9977 50.2036 69.9977 43.9622 69.9977 39.4062C69.9977 20.0184 60.871 9.81216 53.2141 4.66812Z" fill="#4ABD4A"/>
</svg>
