<svg width="260" height="248" viewBox="0 0 260 248" fill="none" xmlns="http://www.w3.org/2000/svg">
<g filter="url(#filter0_d_127_17)">
<path fill-rule="evenodd" clip-rule="evenodd" d="M30 10H202.224V36.109H191.113V20.4436H41.1112V140.545H159.929V150.989H30V10ZM196.668 77.8834C201.089 77.8834 205.328 76.233 208.453 73.2951C211.579 70.3573 213.335 66.3728 213.335 62.218C213.335 58.0633 211.579 54.0787 208.453 51.1409C205.328 48.2031 201.089 46.5526 196.668 46.5526C192.248 46.5526 188.009 48.2031 184.883 51.1409C181.757 54.0787 180.001 58.0633 180.001 62.218C180.001 66.3728 181.757 70.3573 184.883 73.2951C188.009 76.233 192.248 77.8834 196.668 77.8834ZM207.952 88.3793C215.168 88.3793 220.88 91.4288 224.618 96.1389C228.113 100.551 229.591 106.008 229.924 111.047C230.254 116.216 229.505 121.396 227.718 126.295C226.052 130.838 223.235 135.537 218.891 138.759V190.152C218.895 192.12 218.11 194.017 216.694 195.467C215.277 196.916 213.332 197.811 211.246 197.973C209.159 198.136 207.084 197.554 205.433 196.344C203.782 195.134 202.676 193.384 202.335 191.442L195.168 150.989H193.513L185.413 191.593C185.028 193.51 183.897 195.222 182.24 196.396C180.583 197.57 178.52 198.121 176.454 197.941C174.388 197.76 172.467 196.862 171.069 195.422C169.67 193.981 168.893 192.102 168.89 190.152V115.653C167.779 117.243 166.683 118.843 165.601 120.452L165.168 121.094L165.057 121.261L165.029 121.308C164.28 122.438 163.237 123.37 161.999 124.016C160.761 124.662 159.368 125 157.951 125H130.173C127.963 125 125.843 124.175 124.281 122.706C122.718 121.237 121.84 119.244 121.84 117.167C121.84 115.09 122.718 113.097 124.281 111.629C125.843 110.16 127.963 109.334 130.173 109.334H153.379C154.729 107.371 156.507 104.823 158.373 102.264C160.318 99.5957 162.462 96.7707 164.373 94.5567C165.301 93.4757 166.34 92.3478 167.385 91.4236C167.896 90.9693 168.607 90.3792 169.473 89.857C171 88.908 172.788 88.3964 174.618 88.3845L207.952 88.3793Z" fill="#4ABD4A"/>
<path d="M207.951 89.4209C214.849 89.4209 220.26 92.324 223.802 96.7842V96.7852C226.919 100.721 228.374 105.565 228.811 110.193L228.885 111.116C229.205 116.139 228.477 121.173 226.74 125.936C225.119 130.355 222.402 134.859 218.271 137.923L217.849 138.234V190.154C217.852 191.84 217.181 193.478 215.949 194.738C214.715 196.001 213.009 196.791 211.165 196.935C209.321 197.078 207.494 196.563 206.049 195.504C204.605 194.446 203.654 192.928 203.361 191.262L203.36 191.261L196.194 150.807L196.042 149.947H192.658L192.491 150.785L184.391 191.39C184.06 193.034 183.086 194.519 181.638 195.546C180.187 196.574 178.37 197.063 176.544 196.903C174.718 196.744 173.034 195.951 171.815 194.696C170.599 193.444 169.934 191.821 169.932 190.15V112.343L168.036 115.057C167.479 115.855 166.925 116.655 166.375 117.457L164.737 119.869L164.305 120.511L164.301 120.517L164.189 120.685L164.174 120.707L164.16 120.731L164.15 120.746C163.503 121.718 162.599 122.527 161.518 123.092C160.43 123.659 159.203 123.959 157.952 123.958H130.173C128.219 123.958 126.357 123.228 124.994 121.946C123.633 120.667 122.882 118.947 122.882 117.167C122.882 115.387 123.633 113.667 124.994 112.388C126.357 111.106 128.219 110.376 130.173 110.376H153.927L154.237 109.925C155.248 108.455 156.497 106.659 157.843 104.778L159.215 102.878C161.154 100.216 163.279 97.4184 165.162 95.2373L165.164 95.2354C166.079 94.1693 167.083 93.0825 168.075 92.2041L168.076 92.2021C168.565 91.7678 169.222 91.2242 170.011 90.749L170.018 90.7451L170.023 90.7422C171.384 89.8965 172.983 89.4365 174.625 89.4258L174.624 89.4248L207.951 89.4209ZM201.183 11.042V35.0674H192.154V19.4023H40.0693V141.587H158.888V149.947H31.042V11.042H201.183ZM196.668 47.5947C200.832 47.5947 204.814 49.1502 207.74 51.9004C210.664 54.6485 212.293 58.3611 212.293 62.2178C212.293 66.0746 210.664 69.788 207.74 72.5361C204.814 75.2864 200.832 76.8418 196.668 76.8418C192.504 76.8417 188.523 75.2862 185.597 72.5361C182.673 69.788 181.043 66.0747 181.043 62.2178C181.043 58.361 182.673 54.6485 185.597 51.9004C188.523 49.1502 192.504 47.5948 196.668 47.5947Z" stroke="#4ABD4A" stroke-width="2.08333"/>
</g>
<defs>
<filter id="filter0_d_127_17" x="0" y="0" width="260" height="248" filterUnits="userSpaceOnUse" color-interpolation-filters="sRGB">
<feFlood flood-opacity="0" result="BackgroundImageFix"/>
<feColorMatrix in="SourceAlpha" type="matrix" values="0 0 0 0 0 0 0 0 0 0 0 0 0 0 0 0 0 0 127 0" result="hardAlpha"/>
<feOffset dy="20"/>
<feGaussianBlur stdDeviation="15"/>
<feComposite in2="hardAlpha" operator="out"/>
<feColorMatrix type="matrix" values="0 0 0 0 0 0 0 0 0 0 0 0 0 0 0 0 0 0 0.25 0"/>
<feBlend mode="normal" in2="BackgroundImageFix" result="effect1_dropShadow_127_17"/>
<feBlend mode="normal" in="SourceGraphic" in2="effect1_dropShadow_127_17" result="shape"/>
</filter>
</defs>
</svg>
