<svg width="200" height="188" viewBox="0 0 200 188" fill="none" xmlns="http://www.w3.org/2000/svg">
<path d="M91.5771 8.34073C91.5771 10.5528 92.496 12.6743 94.1316 14.2385C95.7672 15.8027 97.9856 16.6815 100.299 16.6815C102.612 16.6815 104.83 15.8027 106.466 14.2385C108.101 12.6743 109.02 10.5528 109.02 8.34073C109.02 6.12863 108.101 4.00713 106.466 2.44294C104.83 0.878752 102.612 0 100.299 0C97.9856 0 95.7672 0.878752 94.1316 2.44294C92.496 4.00713 91.5771 6.12863 91.5771 8.34073ZM100.211 20.8518C95.9393 20.8198 91.8035 22.2882 88.5883 24.9787C85.3731 27.6691 83.3021 31.3944 82.7682 35.4481C82.7181 35.7399 82.731 36.0384 82.806 36.3253C82.881 36.6121 83.0165 36.8813 83.2043 37.1162C83.407 37.3489 83.6602 37.5366 83.9463 37.6663C84.2325 37.7959 84.5448 37.8644 84.8614 37.8669H115.125C115.442 37.8644 115.754 37.7959 116.041 37.6663C116.327 37.5366 116.58 37.3489 116.783 37.1162C117.044 36.9139 117.257 36.6603 117.408 36.3726C117.558 36.0848 117.642 35.7696 117.655 35.4481C117.121 31.3944 115.05 27.6691 111.835 24.9787C108.619 22.2882 104.484 20.8198 100.211 20.8518ZM174.433 91.748C174.433 93.9601 175.351 96.0816 176.987 97.6458C178.623 99.21 180.841 100.089 183.154 100.089C185.467 100.089 187.686 99.21 189.321 97.6458C190.957 96.0816 191.876 93.9601 191.876 91.748C191.876 89.5359 190.957 87.4144 189.321 85.8502C187.686 84.286 185.467 83.4073 183.154 83.4073C180.841 83.4073 178.623 84.286 176.987 85.8502C175.351 87.4144 174.433 89.5359 174.433 91.748ZM165.885 118.855C165.77 119.12 165.711 119.403 165.711 119.689C165.711 119.976 165.77 120.259 165.885 120.524C166.088 120.756 166.341 120.944 166.627 121.074C166.914 121.203 167.226 121.272 167.542 121.274H197.806C198.123 121.272 198.435 121.203 198.722 121.074C199.008 120.944 199.261 120.756 199.464 120.524C199.662 120.293 199.811 120.026 199.901 119.74C199.991 119.453 200.02 119.153 199.987 118.855C199.987 114.431 198.149 110.188 194.878 107.06C191.607 103.931 187.17 102.174 182.544 102.174C177.917 102.174 173.481 103.931 170.209 107.06C166.938 110.188 165.1 114.431 165.1 118.855H165.885ZM91.5771 158.474C91.5771 160.686 92.496 162.807 94.1316 164.372C95.7672 165.936 97.9856 166.815 100.299 166.815C102.612 166.815 104.83 165.936 106.466 164.372C108.101 162.807 109.02 160.686 109.02 158.474C109.02 156.262 108.101 154.14 106.466 152.576C104.83 151.012 102.612 150.133 100.299 150.133C97.9856 150.133 95.7672 151.012 94.1316 152.576C92.496 154.14 91.5771 156.262 91.5771 158.474ZM100.211 170.985C95.9393 170.953 91.8035 172.421 88.5883 175.112C85.3731 177.802 83.3021 181.528 82.7682 185.581C82.7181 185.873 82.731 186.171 82.806 186.458C82.881 186.745 83.0165 187.014 83.2043 187.249C83.407 187.482 83.6602 187.67 83.9463 187.799C84.2325 187.929 84.5448 187.997 84.8614 188H115.125C115.442 187.997 115.754 187.929 116.041 187.799C116.327 187.67 116.58 187.482 116.783 187.249C117.044 187.047 117.257 186.793 117.408 186.506C117.558 186.218 117.642 185.903 117.655 185.581C117.121 181.528 115.05 177.802 111.835 175.112C108.619 172.421 104.484 170.953 100.211 170.985ZM8.72163 91.748C8.72163 93.9601 9.64051 96.0816 11.2761 97.6458C12.9118 99.21 15.1301 100.089 17.4433 100.089C19.7564 100.089 21.9748 99.21 23.6104 97.6458C25.246 96.0816 26.1649 93.9601 26.1649 91.748C26.1649 89.5359 25.246 87.4144 23.6104 85.8502C21.9748 84.286 19.7564 83.4073 17.4433 83.4073C15.1301 83.4073 12.9118 84.286 11.2761 85.8502C9.64051 87.4144 8.72163 89.5359 8.72163 91.748ZM17.4433 104.259C13.2011 104.268 9.10771 105.755 5.92913 108.441C2.75056 111.128 0.70469 114.83 0.174432 118.855C0.0592842 119.12 0 119.403 0 119.689C0 119.976 0.0592842 120.259 0.174432 120.524C0.377079 120.756 0.630293 120.944 0.916464 121.074C1.20264 121.203 1.5149 121.272 1.83154 121.274H32.5317C32.8483 121.272 33.1606 121.203 33.4467 121.074C33.7329 120.944 33.9861 120.756 34.1888 120.524C34.3874 120.293 34.536 120.026 34.6259 119.74C34.7157 119.453 34.745 119.153 34.7121 118.855C34.1818 114.83 32.1359 111.128 28.9574 108.441C25.7788 105.755 21.6854 104.268 17.4433 104.259ZM138.063 60.4703C138.398 61.2226 138.957 61.864 139.671 62.3149C140.384 62.7658 141.22 63.0062 142.075 63.0062C142.93 63.0062 143.767 62.7658 144.48 62.3149C145.193 61.864 145.752 61.2226 146.087 60.4703L147.047 58.6353C147.178 58.3102 147.404 58.0278 147.698 57.821C147.991 57.6142 148.34 57.4916 148.704 57.4676C149.049 57.3946 149.408 57.4101 149.745 57.5126C150.082 57.6152 150.385 57.801 150.622 58.0515C154.688 61.9462 158.259 66.2855 161.263 70.9796C162.013 72.2557 163.101 73.3206 164.417 74.0673C165.734 74.814 167.233 75.2162 168.763 75.2334C170.299 75.2181 171.804 74.8153 173.124 74.0657C175.119 72.9654 176.578 71.1552 177.183 69.0301C177.787 66.905 177.488 64.6374 176.351 62.7223C171.34 54.6156 164.942 47.3699 157.425 41.2866C157.061 40.9838 156.811 40.5738 156.717 40.121C156.622 39.6681 156.687 39.198 156.902 38.7844L161.088 30.4437C161.449 29.6964 161.574 28.8653 161.45 28.0511C161.327 27.2369 160.958 26.4745 160.391 25.8563C159.806 25.2505 159.046 24.8242 158.208 24.6312C157.369 24.4382 156.49 24.4872 155.681 24.772L132.481 33.1127C131.393 33.4907 130.501 34.2599 129.996 35.2567C129.491 36.2536 129.413 37.3995 129.778 38.4508L138.063 60.4703ZM25.9032 70.5626C25.9878 71.6576 26.5206 72.6767 27.3859 73.3984C28.2189 74.1232 29.3127 74.5118 30.4385 74.4827L55.1207 72.9814C55.9855 72.9362 56.8155 72.6409 57.5008 72.1344C58.1861 71.628 58.6944 70.9344 58.9582 70.1455C59.2509 69.3776 59.2907 68.5424 59.0724 67.7521C58.8542 66.9619 58.3882 66.2545 57.7372 65.7249L51.1087 60.4703C50.872 60.2893 50.6793 60.0613 50.5438 59.8021C50.4082 59.5429 50.3332 59.2586 50.3238 58.9689C50.3277 58.6865 50.3916 58.4079 50.5115 58.1498C50.6315 57.8917 50.805 57.6596 51.0215 57.4676C56.3328 52.2282 62.4867 47.8355 69.2497 44.4561C70.3111 43.9899 71.2637 43.3245 72.0511 42.4995C72.8385 41.6746 73.4445 40.7067 73.8334 39.6535C74.2222 38.6002 74.3859 37.483 74.3147 36.3682C74.2435 35.2533 73.9388 34.1634 73.4189 33.1633C72.8989 32.1631 72.1741 31.273 71.2876 30.5458C70.4011 29.8186 69.3709 29.2691 68.258 28.9299C67.1452 28.5907 65.9725 28.4687 64.8095 28.5711C63.6464 28.6735 62.5168 28.9983 61.4875 29.5262C52.6262 33.7664 44.5766 39.4061 37.6774 46.2076C37.2742 46.5652 36.7446 46.7639 36.1947 46.7639C35.6448 46.7639 35.1153 46.5652 34.7121 46.2076L31.5723 43.7888C30.9221 43.2498 30.1198 42.9067 29.2662 42.8028C28.4126 42.6989 27.546 42.8388 26.7754 43.205C26.0071 43.575 25.3675 44.1502 24.9341 44.8607C24.5007 45.5713 24.292 46.3868 24.3333 47.2085L25.9032 70.5626ZM62.7085 147.297C62.5579 146.443 62.1327 145.654 61.4918 145.041C60.851 144.428 60.0263 144.022 59.1326 143.878C58.2701 143.758 57.3902 143.894 56.6108 144.267C55.8313 144.64 55.1897 145.231 54.7718 145.963L52.7658 149.132C52.5992 149.401 52.3717 149.63 52.1 149.803C51.8282 149.977 51.5193 150.089 51.1959 150.133C50.8645 150.171 50.5286 150.138 50.212 150.037C49.8954 149.936 49.606 149.769 49.3644 149.549C44.7254 144.793 40.8195 139.429 37.7646 133.618C36.7345 131.639 34.9249 130.132 32.7334 129.429C30.542 128.725 28.1481 128.882 26.0777 129.865C24.0082 130.85 22.4324 132.581 21.6965 134.677C20.9605 136.772 21.1247 139.062 22.1529 141.042C26.8688 150.093 33.2501 158.258 40.9916 165.146C41.2958 165.515 41.4613 165.97 41.4613 166.439C41.4613 166.908 41.2958 167.364 40.9916 167.732L36.718 174.738C36.2491 175.419 35.9992 176.217 35.9992 177.032C35.9992 177.847 36.2491 178.645 36.718 179.326C37.2412 179.971 37.9444 180.463 38.7468 180.743C39.5492 181.024 40.418 181.082 41.2533 180.91L65.1505 174.905C65.7065 174.769 66.229 174.529 66.6879 174.2C67.1468 173.87 67.5332 173.457 67.8249 172.984C68.1166 172.512 68.3079 171.989 68.3878 171.445C68.4676 170.902 68.4345 170.348 68.2903 169.817L62.7085 147.297ZM174.607 137.539C174.522 136.999 174.326 136.48 174.028 136.015C173.731 135.549 173.339 135.144 172.876 134.826C172.412 134.507 171.887 134.28 171.331 134.159C170.774 134.037 170.198 134.024 169.636 134.119L145.215 137.705C144.364 137.816 143.567 138.17 142.929 138.721C142.291 139.271 141.842 139.993 141.639 140.791C141.438 141.59 141.488 142.428 141.783 143.199C142.078 143.971 142.604 144.642 143.296 145.129L148.704 148.882C149.177 149.298 149.485 149.858 149.576 150.467C149.572 151.062 149.321 151.632 148.878 152.051C143.747 156.893 137.863 160.944 131.435 164.062C129.714 164.903 128.333 166.266 127.51 167.938C126.687 169.61 126.468 171.496 126.887 173.3C127.307 175.104 128.34 176.724 129.826 177.905C131.313 179.086 133.167 179.762 135.098 179.826C136.456 179.844 137.8 179.559 139.023 178.992C148.153 174.607 156.417 168.737 163.443 161.643C163.841 161.309 164.353 161.125 164.882 161.125C165.412 161.125 165.923 161.309 166.321 161.643L171.38 165.146C172.111 165.671 172.996 165.963 173.909 165.98C174.715 165.963 175.5 165.732 176.177 165.313C177.136 164.956 177.923 164.275 178.39 163.398C178.857 162.521 178.969 161.51 178.706 160.559L174.607 137.539ZM61.313 123.109C61.0008 123.968 60.9091 124.886 61.0457 125.786C61.1823 126.686 61.5432 127.542 62.098 128.28C62.6432 129.009 63.3637 129.601 64.1985 130.008C65.0333 130.414 65.9581 130.623 66.8949 130.616H133.615C134.552 130.623 135.477 130.414 136.312 130.008C137.147 129.601 137.867 129.009 138.412 128.28C138.967 127.542 139.328 126.686 139.464 125.786C139.601 124.886 139.509 123.968 139.197 123.109C136.374 115.385 131.109 108.692 124.132 103.957C117.155 99.2212 108.811 96.6772 100.255 96.6772C91.6994 96.6772 83.3553 99.2212 76.3783 103.957C69.4013 108.692 64.1366 115.385 61.313 123.109ZM82.5066 73.9822C82.5066 78.4949 84.3811 82.8228 87.7178 86.0137C91.0544 89.2047 95.5799 90.9973 100.299 90.9973C105.017 90.9973 109.543 89.2047 112.88 86.0137C116.216 82.8228 118.091 78.4949 118.091 73.9822C118.091 69.4696 116.216 65.1417 112.88 61.9508C109.543 58.7598 105.017 56.9672 100.299 56.9672C95.5799 56.9672 91.0544 58.7598 87.7178 61.9508C84.3811 65.1417 82.5066 69.4696 82.5066 73.9822Z" fill="#4ABD4A"/>
</svg>
